<svg width="169" height="129" viewBox="0 0 169 129" fill="none" xmlns="http://www.w3.org/2000/svg">
<path d="M1 112.393V9.39271C29.5 3.05937 102.8 -5.80729 168 9.39271V112.393C86.8 140.393 22.8333 124.059 1 112.393Z" fill="#D41640"/>
<path d="M1 9.39271V112.393C22.8333 124.059 86.8 140.393 168 112.393V9.39271M1 9.39271C63 28.9927 138.167 17.5594 168 9.39271M1 9.39271C29.5 3.05937 102.8 -5.80729 168 9.39271" stroke="white"/>
<path d="M116.74 103.37C113.567 105.977 109.713 108.017 105.18 109.49C100.76 110.963 96.2833 111.7 91.75 111.7C83.93 111.7 77.0167 110.17 71.01 107.11C65.1167 104.05 60.5267 99.7433 57.24 94.19C53.9533 88.6367 52.31 82.0067 52.31 74.3C52.31 66.7067 54.0667 60.1333 57.58 54.58C61.0933 48.9133 65.74 44.6067 71.52 41.66C77.3 38.6 83.42 37.07 89.88 37.07C95.7733 37.07 100.987 37.8633 105.52 39.45C110.053 41.0367 113.963 43.2467 117.25 46.08L108.58 57.47C106.653 55.8833 104.217 54.4667 101.27 53.22C98.4367 51.9733 95.15 51.35 91.41 51.35C87.4433 51.35 83.8167 52.37 80.53 54.41C77.2433 56.3367 74.6367 59.0567 72.71 62.57C70.7833 65.97 69.82 69.88 69.82 74.3C69.82 78.4933 70.7833 82.4033 72.71 86.03C74.75 89.5433 77.5267 92.32 81.04 94.36C84.5533 96.4 88.5767 97.42 93.11 97.42C96.0567 97.42 98.7767 97.0233 101.27 96.23C103.763 95.3233 105.973 94.0767 107.9 92.49L116.74 103.37Z" fill="white"/>
</svg>
