<svg width="250" height="28" viewBox="0 0 250 28" fill="none" xmlns="http://www.w3.org/2000/svg">
<path d="M1 1.5939V25.9061C1 26.4584 1.44772 26.9061 2 26.9061H5.74634C6.29863 26.9061 6.74634 26.4584 6.74634 25.9061V13.3352C6.74634 12.3679 7.983 11.9642 8.55373 12.7452L17.9394 25.5888C18.1277 25.8465 18.4277 25.9988 18.7468 25.9988H22.2517C22.5798 25.9988 22.8871 25.8378 23.0738 25.568L31.8412 12.904C32.3993 12.098 33.6634 12.4928 33.6634 13.4732V25.9061C33.6634 26.4584 34.1111 26.9061 34.6634 26.9061H38.7122C39.2645 26.9061 39.7122 26.4584 39.7122 25.9061V1.5939C39.7122 1.04162 39.2645 0.593903 38.7122 0.593903H32.9986C32.6589 0.593903 32.3424 0.76634 32.1583 1.05178L21.1964 18.0427C20.8025 18.6532 19.9097 18.6532 19.5158 18.0427L8.55394 1.05178C8.36979 0.766339 8.05333 0.593903 7.71364 0.593903H2C1.44772 0.593903 1 1.04162 1 1.5939Z" fill="#D41640" stroke="#D41640" stroke-linejoin="round"/>
<path d="M112.902 25.6105L112.902 1.5939C112.902 1.04162 112.455 0.593904 111.902 0.593904L109.119 0.593904C108.576 0.593904 108.133 1.02648 108.119 1.56883L107.667 19.5868C107.654 20.1291 107.21 20.5617 106.668 20.5617L98.6264 20.5617L86.853 20.5617C86.3008 20.5617 85.853 20.114 85.853 19.5617L85.853 16.4431L85.853 1.5939C85.853 1.04162 85.4053 0.593902 84.853 0.593902L81.8439 0.593902C81.2916 0.593902 80.8439 1.04162 80.8439 1.5939L80.8439 25.6105C80.8439 26.1627 81.2916 26.6105 81.8439 26.6105L86.8549 26.6105L96.8732 26.6105L106.891 26.6105L111.902 26.6105C112.455 26.6105 112.902 26.1627 112.902 25.6105Z" fill="#D41640" stroke="#D41640" stroke-linejoin="round"/>
<path d="M74.4 0.593903H46.4585C45.9062 0.593903 45.4585 1.04162 45.4585 1.5939V4.73537C45.4585 5.28765 45.9062 5.73537 46.4585 5.73537H74.4C74.9523 5.73537 75.4 5.28765 75.4 4.73537V1.5939C75.4 1.04162 74.9523 0.593903 74.4 0.593903Z" fill="#D41640" stroke="#D41640"/>
<path d="M74.0976 11.1793H46.1561C45.6038 11.1793 45.1561 11.627 45.1561 12.1793V15.3207C45.1561 15.873 45.6038 16.3207 46.1561 16.3207H74.0976C74.6498 16.3207 75.0976 15.873 75.0976 15.3207V12.1793C75.0976 11.627 74.6498 11.1793 74.0976 11.1793Z" fill="#D41640" stroke="#D41640"/>
<path d="M74.0976 21.4622H46.1561C45.6038 21.4622 45.1561 21.9099 45.1561 22.4622V25.6037C45.1561 26.1559 45.6038 26.6037 46.1561 26.6037H74.0976C74.6498 26.6037 75.0976 26.1559 75.0976 25.6037V22.4622C75.0976 21.9099 74.6498 21.4622 74.0976 21.4622Z" fill="#D41640" stroke="#D41640"/>
<path d="M174.6 1.5939V25.9061C174.6 26.4584 175.048 26.9061 175.6 26.9061H179.346C179.899 26.9061 180.346 26.4584 180.346 25.9061V13.3352C180.346 12.3679 181.583 11.9642 182.154 12.7452L191.539 25.5888C191.728 25.8465 192.028 25.9988 192.347 25.9988H195.852C196.18 25.9988 196.487 25.8378 196.674 25.568L205.441 12.904C205.999 12.098 207.263 12.4928 207.263 13.4732V25.9061C207.263 26.4584 207.711 26.9061 208.263 26.9061H212.312C212.864 26.9061 213.312 26.4584 213.312 25.9061V1.5939C213.312 1.04162 212.864 0.593903 212.312 0.593903H206.599C206.259 0.593903 205.942 0.76634 205.758 1.05178L194.796 18.0427C194.403 18.6532 193.51 18.6532 193.116 18.0427L182.154 1.05178C181.97 0.766339 181.653 0.593903 181.314 0.593903H175.6C175.048 0.593903 174.6 1.04162 174.6 1.5939Z" fill="#D41640" stroke="#D41640" stroke-linejoin="round"/>
<path d="M139.61 26.6037L143.356 26.6037C143.908 26.6037 144.356 26.1559 144.356 25.6037L144.356 18.3764L144.356 6.60305C144.356 6.05077 144.804 5.60305 145.356 5.60305L154.639 5.60305L156.67 5.60305C157.222 5.60305 157.67 5.15534 157.67 4.60305L157.67 1.59391C157.67 1.04162 157.222 0.593907 156.67 0.593907L126 0.593908C125.448 0.593908 125 1.04162 125 1.59391L125 4.60305C125 5.15534 125.448 5.60305 126 5.60305L137.61 5.60305C138.162 5.60305 138.61 6.05077 138.61 6.60305L138.61 18.3764L138.61 25.6037C138.61 26.1559 139.057 26.6037 139.61 26.6037Z" fill="#D41640" stroke="#D41640" stroke-linejoin="round"/>
<path d="M164.107 26.9061L167.854 26.9061C168.406 26.9061 168.854 26.4584 168.854 25.9061L168.854 18.6788L168.854 1.5939C168.854 1.04162 168.406 0.5939 167.854 0.5939L164.107 0.593901C163.555 0.593901 163.107 1.04162 163.107 1.5939L163.107 18.6788L163.107 25.9061C163.107 26.4584 163.555 26.9061 164.107 26.9061Z" fill="#D41640" stroke="#D41640" stroke-linejoin="round"/>
<path d="M248 0.593903H220.059C219.506 0.593903 219.059 1.04162 219.059 1.5939V4.73537C219.059 5.28765 219.506 5.73537 220.059 5.73537H248C248.552 5.73537 249 5.28765 249 4.73537V1.5939C249 1.04162 248.552 0.593903 248 0.593903Z" fill="#D41640" stroke="#D41640"/>
<path d="M247.698 11.1793H219.756C219.204 11.1793 218.756 11.627 218.756 12.1793V15.3207C218.756 15.873 219.204 16.3207 219.756 16.3207H247.698C248.25 16.3207 248.698 15.873 248.698 15.3207V12.1793C248.698 11.627 248.25 11.1793 247.698 11.1793Z" fill="#D41640" stroke="#D41640"/>
<path d="M247.698 21.4622H219.756C219.204 21.4622 218.756 21.9099 218.756 22.4622V25.6037C218.756 26.1559 219.204 26.6037 219.756 26.6037H247.698C248.25 26.6037 248.698 26.1559 248.698 25.6037V22.4622C248.698 21.9099 248.25 21.4622 247.698 21.4622Z" fill="#D41640" stroke="#D41640"/>
</svg>
