<svg width="105" height="135" viewBox="0 0 105 135" fill="none" xmlns="http://www.w3.org/2000/svg">
<path d="M101.825 56.1606C101.825 102.794 71.1389 123.702 58.1305 130.47L58.1163 130.477L58.1132 130.479C56.7453 131.191 56.0596 131.548 54.5055 131.854C53.521 132.049 51.3098 132.049 50.3252 131.854C48.7644 131.546 48.0714 131.188 46.6928 130.47C33.6838 123.702 3 102.794 3 56.1606V28.0111C3 20.0585 3 16.0792 4.34642 13.0418C5.53071 10.3699 7.41913 8.1992 9.74354 6.83788C24.5169 3.94172 62.2661 -0.112889 95.0761 6.83788C97.4003 8.1992 99.2953 10.3699 100.479 13.0418C101.825 16.0763 101.825 20.0507 101.825 27.9877V56.1606Z" stroke="#D41640" stroke-width="5" stroke-linecap="round" stroke-linejoin="round"/>
<path d="M25.6316 86.7368V29.5428L46.8724 69.4595L67.2282 33.4153M36.547 32.5216L47.7574 53.0757M71.0633 59.0335V86.1411M51.0025 79.2897L78.4386 28.6491V86.1411M33.0069 59.0335V86.1411" stroke="#D41640" stroke-width="3" stroke-linejoin="round"/>
<path d="M25.6316 86.7368V29.5428L46.8724 69.4595L67.2282 33.4153M36.547 32.5216L47.7574 53.0757M71.0633 59.0335V86.1411M51.0025 79.2897L78.4386 28.6491V86.1411M33.0069 59.0335V86.1411" stroke="#D41640" stroke-width="3" stroke-linejoin="round"/>
</svg>
